{
  "accessors": [
    {
      "bufferView": 2,
      "componentType": 5126,
      "count": 10,
      "max": [
        0.760779619216919,
        1.0,
        1.1513656377792358
      ],
      "min": [
        0.0,
        -1.0,
        0.9177892804145813
      ],
      "type": "VEC3"
    },
    {
      "bufferView": 0,
      "componentType": 5125,
      "count": 14,
      "type": "SCALAR"
    },
    {
      "bufferView": 2,
      "byteOffset": 120,
      "componentType": 5126,
      "count": 11868,
      "max": [
        1.9789750576019287,
        4.964667320251465,
        3.4512057304382324
      ],
      "min": [
        -3.440505027770996,
        -4.964667797088623,
        -3.5009565353393555
      ],
      "type": "VEC3"
    },
    {
      "bufferView": 2,
      "byteOffset": 142536,
      "componentType": 5126,
      "count": 11868,
      "max": [
        1.0000001192092896,
        1.0,
        1.0
      ],
      "min": [
        -1.0000001192092896,
        -1.0,
        -1.0000001192092896
      ],
      "type": "VEC3"
    },
    {
      "bufferView": 1,
      "componentType": 5126,
      "count": 11868,
      "max": [
        0.9911391735076904,
        0.9887713193893433
      ],
      "min": [
        0.006058334838598967,
        0.006565808784216642
      ],
      "type": "VEC2"
    },
    {
      "bufferView": 0,
      "byteOffset": 56,
      "componentType": 5125,
      "count": 70449,
      "type": "SCALAR"
    },
    {
      "bufferView": 2,
      "byteOffset": 284952,
      "componentType": 5126,
      "count": 10,
      "max": [
        0.760779619216919,
        1.0,
        1.1513656377792358
      ],
      "min": [
        0.0,
        -1.0,
        0.9177892804145813
      ],
      "type": "VEC3"
    },
    {
      "bufferView": 0,
      "byteOffset": 281852,
      "componentType": 5125,
      "count": 14,
      "type": "SCALAR"
    },
    {
      "bufferView": 2,
      "byteOffset": 285072,
      "componentType": 5126,
      "count": 11868,
      "max": [
        1.9789750576019287,
        4.964667320251465,
        3.4512057304382324
      ],
      "min": [
        -3.440505027770996,
        -4.964667797088623,
        -3.5009565353393555
      ],
      "type": "VEC3"
    },
    {
      "bufferView": 2,
      "byteOffset": 427488,
      "componentType": 5126,
      "count": 11868,
      "max": [
        1.0000001192092896,
        1.0,
        1.0
      ],
      "min": [
        -1.0000001192092896,
        -1.0,
        -1.0000001192092896
      ],
      "type": "VEC3"
    },
    {
      "bufferView": 1,
      "byteOffset": 94944,
      "componentType": 5126,
      "count": 11868,
      "max": [
        0.9911391735076904,
        0.9887713193893433
      ],
      "min": [
        0.006058334838598967,
        0.006565808784216642
      ],
      "type": "VEC2"
    },
    {
      "bufferView": 0,
      "byteOffset": 281908,
      "componentType": 5125,
      "count": 70449,
      "type": "SCALAR"
    }
  ],
  "asset": {
    "extras": {
      "author": "Omega.Rabatich (https://sketchfab.com/Omega.Rabatich)",
      "license": "CC-BY-4.0 (http://creativecommons.org/licenses/by/4.0/)",
      "source": "https://sketchfab.com/3d-models/sonicexe-from-fnf-bc5eb1d32cf241a5b5cdfc36986431eb",
      "title": "Sonic.exe from fnf"
    },
    "generator": "Sketchfab-15.16.0",
    "version": "2.0"
  },
  "bufferViews": [
    {
      "buffer": 0,
      "byteLength": 563704,
      "name": "floatBufferViews",
      "target": 34963
    },
    {
      "buffer": 0,
      "byteLength": 189888,
      "byteOffset": 563704,
      "byteStride": 8,
      "name": "floatBufferViews",
      "target": 34962
    },
    {
      "buffer": 0,
      "byteLength": 569904,
      "byteOffset": 753592,
      "byteStride": 12,
      "name": "floatBufferViews",
      "target": 34962
    }
  ],
  "buffers": [
    {
      "byteLength": 1323496,
      "uri": "scene.bin"
    }
  ],
  "extensionsUsed": [
    "KHR_materials_specular"
  ],
  "images": [
    {
      "uri": "textures/Material_baseColor.png"
    }
  ],
  "materials": [
    {
      "doubleSided": true,
      "name": "material_0",
      "pbrMetallicRoughness": {
        "metallicFactor": 0.0,
        "roughnessFactor": 0.6
      }
    },
    {
      "extensions": {
        "KHR_materials_specular": {
          "specularColorFactor": [
            1.0,
            1.0,
            1.0
          ],
          "specularFactor": 0.0
        }
      },
      "name": "Material",
      "pbrMetallicRoughness": {
        "baseColorTexture": {
          "index": 0
        },
        "metallicFactor": 0.0,
        "roughnessFactor": 0.6
      }
    }
  ],
  "meshes": [
    {
      "name": "Object_0",
      "primitives": [
        {
          "attributes": {
            "POSITION": 0
          },
          "indices": 1,
          "material": 0,
          "mode": 1
        }
      ]
    },
    {
      "name": "Object_1",
      "primitives": [
        {
          "attributes": {
            "NORMAL": 3,
            "POSITION": 2,
            "TEXCOORD_0": 4
          },
          "indices": 5,
          "material": 1,
          "mode": 4
        }
      ]
    },
    {
      "name": "Object_2",
      "primitives": [
        {
          "attributes": {
            "POSITION": 6
          },
          "indices": 7,
          "material": 0,
          "mode": 1
        }
      ]
    },
    {
      "name": "Object_3",
      "primitives": [
        {
          "attributes": {
            "NORMAL": 9,
            "POSITION": 8,
            "TEXCOORD_0": 10
          },
          "indices": 11,
          "material": 1,
          "mode": 4
        }
      ]
    }
  ],
  "nodes": [
    {
      "children": [
        1
      ],
      "matrix": [
        1.0,
        0.0,
        0.0,
        0.0,
        0.0,
        2.220446049250313e-16,
        -1.0,
        0.0,
        0.0,
        1.0,
        2.220446049250313e-16,
        0.0,
        0.0,
        0.0,
        0.0,
        1.0
      ],
      "name": "Sketchfab_model"
    },
    {
      "children": [
        2,
        8,
        10
      ],
      "name": "Collada visual scene group"
    },
    {
      "children": [
        3
      ],
      "name": "Esqueleto"
    },
    {
      "children": [
        4,
        5,
        6,
        7
      ],
      "name": "Object_3"
    },
    {
      "mesh": 0,
      "name": "Object_4"
    },
    {
      "mesh": 1,
      "name": "Object_5"
    },
    {
      "mesh": 2,
      "name": "Object_6"
    },
    {
      "mesh": 3,
      "name": "Object_7"
    },
    {
      "children": [
        9
      ],
      "matrix": [
        1.0,
        0.0,
        0.0,
        0.0,
        0.0,
        1.0,
        0.0,
        0.0,
        0.0,
        0.0,
        1.0,
        0.0,
        0.0,
        0.0,
        12.0,
        1.0
      ],
      "name": "Hemi"
    },
    {
      "name": "Hemi"
    },
    {
      "children": [
        11
      ],
      "matrix": [
        0.6859207,
        0.7276763,
        0.0,
        0.0,
        -0.3240135,
        0.3054208,
        0.8953956,
        0.0,
        0.6515582,
        -0.6141704,
        0.4452714,
        0.0,
        7.481132,
        -6.50764,
        5.343665,
        1.0
      ],
      "name": "Camera"
    },
    {
      "name": "Camera-camera"
    }
  ],
  "samplers": [
    {
      "magFilter": 9729,
      "minFilter": 9987,
      "wrapS": 10497,
      "wrapT": 10497
    }
  ],
  "scene": 0,
  "scenes": [
    {
      "name": "Sketchfab_Scene",
      "nodes": [
        0
      ]
    }
  ],
  "textures": [
    {
      "sampler": 0,
      "source": 0
    }
  ]
}
